<svg width="318" height="20" viewBox="0 0 318 20" fill="none" xmlns="http://www.w3.org/2000/svg">
<path d="M16.177 4.22729C16.3521 4.22735 16.5199 4.29685 16.6438 4.42065C16.7676 4.54447 16.837 4.71236 16.8372 4.88745V14.0095C16.8371 14.3747 16.5422 14.6696 16.177 14.6697H10.5891V15.9998H12.5999C12.7559 15.9998 12.9055 16.0623 13.0159 16.1726C13.1262 16.283 13.1886 16.4326 13.1887 16.5886C13.1887 16.7448 13.1263 16.8952 13.0159 17.0056C12.9055 17.1159 12.7559 17.1775 12.5999 17.1775H7.40063C7.24444 17.1775 7.09409 17.1161 6.98364 17.0056C6.8732 16.8952 6.81177 16.7448 6.81177 16.5886C6.81188 16.4326 6.87334 16.2829 6.98364 16.1726C7.09409 16.0622 7.24444 15.9998 7.40063 15.9998H9.41138V14.6697H3.82349C3.45839 14.6694 3.16341 14.3747 3.16333 14.0095V4.88745C3.16344 4.71236 3.23287 4.54447 3.35669 4.42065C3.48051 4.29684 3.64839 4.22741 3.82349 4.22729H16.177ZM4.34106 13.4919H15.6594V5.40503H4.34106V13.4919ZM7.14966 8.20288C7.30577 8.20294 7.45528 8.26534 7.56567 8.37573C7.67606 8.48615 7.7385 8.63562 7.73853 8.79175V11.4539C7.73853 11.6101 7.67612 11.7604 7.56567 11.8708C7.4553 11.9811 7.30566 12.0427 7.14966 12.0427C6.99347 12.0427 6.84311 11.9813 6.73267 11.8708C6.62225 11.7604 6.56079 11.61 6.56079 11.4539V8.79175C6.56082 8.63575 6.62245 8.48612 6.73267 8.37573C6.84311 8.26529 6.99347 8.20288 7.14966 8.20288ZM10.0002 6.54956C10.1564 6.54962 10.3059 6.61202 10.4163 6.72241C10.5266 6.83284 10.5891 6.98229 10.5891 7.13843V11.4539C10.5891 11.6101 10.5267 11.7604 10.4163 11.8708C10.3059 11.9811 10.1562 12.0427 10.0002 12.0427C9.84405 12.0427 9.6937 11.9813 9.58325 11.8708C9.47282 11.7604 9.41138 11.61 9.41138 11.4539V7.13843C9.41138 6.98241 9.47304 6.83282 9.58325 6.72241C9.6937 6.61197 9.84405 6.54956 10.0002 6.54956ZM12.8508 9.37085C13.0068 9.37092 13.1565 9.43251 13.2668 9.54272C13.3773 9.65317 13.4397 9.80352 13.4397 9.95972V11.4539C13.4397 11.6101 13.3773 11.7604 13.2668 11.8708C13.1565 11.9811 13.0068 12.0427 12.8508 12.0427C12.6946 12.0427 12.5443 11.9813 12.4338 11.8708C12.3234 11.7604 12.262 11.61 12.262 11.4539V9.95972C12.262 9.80352 12.3234 9.65317 12.4338 9.54272C12.5443 9.43231 12.6947 9.37085 12.8508 9.37085Z" fill="#828E9D" stroke="#828E9D" stroke-width="0.1"/>
<path d="M20.195 5.718H27.8V7.018H24.758V15H23.237V7.018H20.195V5.718ZM31.95 8.097C32.275 8.097 32.561 8.149 32.795 8.266V9.748C32.457 9.644 32.145 9.605 31.833 9.605C31.443 9.605 31.092 9.748 30.78 10.06C30.416 10.411 30.247 10.866 30.247 11.438V15H28.778V8.279H30.247V9.241C30.429 8.903 30.637 8.643 30.884 8.461C31.183 8.214 31.534 8.097 31.95 8.097ZM36.6954 8.097C37.6834 8.097 38.4244 8.344 38.8924 8.838C39.3084 9.267 39.5164 9.891 39.5164 10.71V15H38.1384V14.116C37.8784 14.454 37.5534 14.701 37.1764 14.883C36.7474 15.078 36.2404 15.182 35.6554 15.182C34.9534 15.182 34.4074 15 34.0044 14.649C33.5884 14.285 33.3804 13.83 33.3804 13.271C33.3804 12.517 33.6664 11.932 34.2644 11.529C34.8104 11.139 35.5774 10.931 36.5654 10.905L38.0344 10.866V10.606C38.0344 9.722 37.5534 9.293 36.5914 9.293C36.1754 9.293 35.8504 9.358 35.6034 9.514C35.3174 9.683 35.1224 9.943 35.0444 10.294L33.5754 10.177C33.7184 9.436 34.0824 8.89 34.6674 8.552C35.1614 8.24 35.8374 8.097 36.6954 8.097ZM38.0344 11.932L36.6694 11.971C35.4864 11.997 34.9014 12.413 34.9014 13.219C34.9014 13.453 34.9924 13.648 35.2004 13.804C35.4084 13.96 35.6684 14.051 35.9934 14.051C36.5654 14.051 37.0464 13.882 37.4364 13.557C37.8264 13.219 38.0344 12.79 38.0344 12.27V11.932ZM45.8638 5.536H47.3458V15H45.9678V14.285C45.4998 14.883 44.8238 15.182 43.9398 15.182C42.9388 15.182 42.1588 14.831 41.5998 14.129C41.0798 13.479 40.8198 12.634 40.8198 11.607C40.8198 10.619 41.0668 9.8 41.5868 9.15C42.1328 8.448 42.8998 8.097 43.8618 8.097C44.6418 8.097 45.3048 8.461 45.8638 9.202V5.536ZM44.2128 9.293C43.5368 9.293 43.0558 9.514 42.7438 9.956C42.4708 10.333 42.3408 10.879 42.3408 11.607C42.3408 12.335 42.4578 12.894 42.7178 13.284C43.0168 13.752 43.4978 13.986 44.1608 13.986C44.7328 13.986 45.1878 13.752 45.4998 13.297C45.7728 12.881 45.9158 12.335 45.9158 11.685V11.581C45.9158 10.866 45.7338 10.294 45.3958 9.878C45.0838 9.488 44.6808 9.293 44.2128 9.293ZM49.9011 5.536C50.1871 5.536 50.4341 5.627 50.6291 5.809C50.8111 5.991 50.9151 6.225 50.9151 6.511C50.9151 6.797 50.8111 7.044 50.6161 7.226C50.4211 7.408 50.1871 7.499 49.9011 7.499C49.6151 7.499 49.3811 7.408 49.1861 7.226C48.9911 7.031 48.9001 6.797 48.9001 6.511C48.9001 6.225 48.9911 5.991 49.1861 5.809C49.3811 5.627 49.6151 5.536 49.9011 5.536ZM49.1601 8.279H50.6421V15H49.1601V8.279ZM55.9512 8.097C57.6282 8.097 58.4732 9.007 58.4732 10.853V15H56.9912V10.983C56.9912 9.878 56.4842 9.332 55.4702 9.332C55.1062 9.332 54.7812 9.462 54.5082 9.722C54.1962 10.008 54.0142 10.424 53.9622 10.957V15H52.4802V8.279H53.9622V9.059C54.2222 8.747 54.5212 8.5 54.8462 8.344C55.1842 8.175 55.5482 8.097 55.9512 8.097ZM62.8289 8.097C63.6609 8.097 64.3239 8.422 64.8179 9.098V8.279H66.2999V14.571C66.2999 16.69 65.2469 17.756 63.1409 17.756C62.1919 17.756 61.4769 17.574 60.9829 17.236C60.4889 16.872 60.1769 16.326 60.0469 15.572H61.5289C61.6069 15.949 61.7629 16.209 62.0099 16.365C62.2439 16.508 62.6209 16.586 63.1409 16.586C64.2589 16.586 64.8179 15.988 64.8179 14.792V13.804C64.3239 14.493 63.6609 14.844 62.8289 14.844C61.9189 14.844 61.1779 14.532 60.6189 13.934C60.0469 13.323 59.7739 12.504 59.7739 11.49C59.7739 10.476 60.0469 9.657 60.6189 9.033C61.1779 8.409 61.9189 8.097 62.8289 8.097ZM63.0629 9.293C62.5039 9.293 62.0749 9.488 61.7629 9.878C61.4509 10.255 61.2949 10.788 61.2949 11.49C61.2949 12.127 61.4119 12.621 61.6589 12.985C61.9449 13.414 62.3999 13.635 63.0499 13.635C63.6219 13.635 64.0639 13.44 64.3759 13.076C64.6749 12.686 64.8309 12.166 64.8309 11.49C64.8309 10.801 64.6749 10.268 64.3759 9.878C64.0639 9.488 63.6219 9.293 63.0629 9.293ZM72.3133 5.718H76.4473C77.3963 5.718 78.1503 5.926 78.6963 6.355C79.2683 6.823 79.5673 7.499 79.5673 8.383C79.5673 8.864 79.4373 9.293 79.1773 9.67C78.8913 10.086 78.4883 10.359 77.9943 10.489V10.515C78.8003 10.697 79.2553 11.23 79.3593 12.14L79.5153 13.635C79.5673 14.207 79.7623 14.662 80.0743 15H78.4233C78.2023 14.714 78.0723 14.311 78.0203 13.791L77.9033 12.647C77.8513 12.14 77.6953 11.776 77.4353 11.555C77.1623 11.321 76.7593 11.217 76.2393 11.217H73.8343V15H72.3133V5.718ZM73.8343 7.018V9.917H76.2393C76.8373 9.917 77.2923 9.787 77.6043 9.54C77.8903 9.28 78.0333 8.916 78.0333 8.448C78.0333 7.941 77.8903 7.577 77.6043 7.356C77.3183 7.122 76.8633 7.018 76.2393 7.018H73.8343ZM84.3028 8.097C85.2908 8.097 86.0318 8.344 86.4998 8.838C86.9158 9.267 87.1238 9.891 87.1238 10.71V15H85.7458V14.116C85.4858 14.454 85.1608 14.701 84.7838 14.883C84.3548 15.078 83.8478 15.182 83.2628 15.182C82.5608 15.182 82.0148 15 81.6118 14.649C81.1958 14.285 80.9878 13.83 80.9878 13.271C80.9878 12.517 81.2738 11.932 81.8718 11.529C82.4178 11.139 83.1848 10.931 84.1728 10.905L85.6418 10.866V10.606C85.6418 9.722 85.1608 9.293 84.1988 9.293C83.7828 9.293 83.4578 9.358 83.2108 9.514C82.9248 9.683 82.7298 9.943 82.6518 10.294L81.1828 10.177C81.3258 9.436 81.6898 8.89 82.2748 8.552C82.7688 8.24 83.4448 8.097 84.3028 8.097ZM85.6418 11.932L84.2768 11.971C83.0938 11.997 82.5088 12.413 82.5088 13.219C82.5088 13.453 82.5998 13.648 82.8078 13.804C83.0158 13.96 83.2758 14.051 83.6008 14.051C84.1728 14.051 84.6538 13.882 85.0438 13.557C85.4338 13.219 85.6418 12.79 85.6418 12.27V11.932ZM92.1582 8.097C93.8352 8.097 94.6802 9.007 94.6802 10.853V15H93.1982V10.983C93.1982 9.878 92.6912 9.332 91.6772 9.332C91.3132 9.332 90.9882 9.462 90.7152 9.722C90.4032 10.008 90.2212 10.424 90.1692 10.957V15H88.6872V8.279H90.1692V9.059C90.4292 8.747 90.7282 8.5 91.0532 8.344C91.3912 8.175 91.7552 8.097 92.1582 8.097ZM96.2409 5.536H97.7229V10.944L100.479 8.279H102.39L99.4129 11.061L102.65 15H100.752L98.3989 12.01L97.7229 12.647V15H96.2409V5.536ZM104.427 5.536C104.713 5.536 104.96 5.627 105.155 5.809C105.337 5.991 105.441 6.225 105.441 6.511C105.441 6.797 105.337 7.044 105.142 7.226C104.947 7.408 104.713 7.499 104.427 7.499C104.141 7.499 103.907 7.408 103.712 7.226C103.517 7.031 103.426 6.797 103.426 6.511C103.426 6.225 103.517 5.991 103.712 5.809C103.907 5.627 104.141 5.536 104.427 5.536ZM103.686 8.279H105.168V15H103.686V8.279ZM110.478 8.097C112.155 8.097 113 9.007 113 10.853V15H111.518V10.983C111.518 9.878 111.011 9.332 109.997 9.332C109.633 9.332 109.308 9.462 109.035 9.722C108.723 10.008 108.541 10.424 108.489 10.957V15H107.007V8.279H108.489V9.059C108.749 8.747 109.048 8.5 109.373 8.344C109.711 8.175 110.075 8.097 110.478 8.097ZM117.355 8.097C118.187 8.097 118.85 8.422 119.344 9.098V8.279H120.826V14.571C120.826 16.69 119.773 17.756 117.667 17.756C116.718 17.756 116.003 17.574 115.509 17.236C115.015 16.872 114.703 16.326 114.573 15.572H116.055C116.133 15.949 116.289 16.209 116.536 16.365C116.77 16.508 117.147 16.586 117.667 16.586C118.785 16.586 119.344 15.988 119.344 14.792V13.804C118.85 14.493 118.187 14.844 117.355 14.844C116.445 14.844 115.704 14.532 115.145 13.934C114.573 13.323 114.3 12.504 114.3 11.49C114.3 10.476 114.573 9.657 115.145 9.033C115.704 8.409 116.445 8.097 117.355 8.097ZM117.589 9.293C117.03 9.293 116.601 9.488 116.289 9.878C115.977 10.255 115.821 10.788 115.821 11.49C115.821 12.127 115.938 12.621 116.185 12.985C116.471 13.414 116.926 13.635 117.576 13.635C118.148 13.635 118.59 13.44 118.902 13.076C119.201 12.686 119.357 12.166 119.357 11.49C119.357 10.801 119.201 10.268 118.902 9.878C118.59 9.488 118.148 9.293 117.589 9.293ZM124.916 8.097C126.684 8.097 127.659 8.799 127.815 10.229H126.372C126.268 9.891 126.112 9.644 125.904 9.514C125.683 9.371 125.345 9.306 124.89 9.306C124.5 9.306 124.201 9.358 124.006 9.475C123.772 9.592 123.668 9.774 123.668 10.034C123.668 10.242 123.837 10.437 124.201 10.593C124.422 10.684 124.864 10.814 125.54 10.983C126.294 11.165 126.866 11.373 127.23 11.62C127.763 11.958 128.036 12.439 128.036 13.037C128.036 14.467 127.022 15.182 125.007 15.182C123.135 15.182 122.134 14.389 121.991 12.816H123.434C123.512 13.245 123.668 13.544 123.889 13.726C124.11 13.882 124.461 13.973 124.955 13.973C125.995 13.973 126.515 13.687 126.515 13.141C126.515 12.829 126.32 12.582 125.93 12.4C125.722 12.296 125.28 12.179 124.604 12.023C123.811 11.841 123.252 11.646 122.927 11.438C122.407 11.113 122.147 10.658 122.147 10.073C122.147 9.449 122.394 8.968 122.914 8.63C123.421 8.266 124.084 8.097 124.916 8.097Z" fill="#828E9D"/>
</svg>
